<svg width="24" height="24" viewBox="0 0 24 24" fill="none" xmlns="http://www.w3.org/2000/svg">
<path fill-rule="evenodd" clip-rule="evenodd" d="M12 2C6.477 2 2 6.477 2 12C2 17.523 6.477 22 12 22C17.523 22 22 17.523 22 12C22 6.477 17.523 2 12 2ZM12 4C16.418 4 20 7.582 20 12C20 16.418 16.418 20 12 20C7.582 20 4 16.418 4 12C4 7.582 7.582 4 12 4ZM12 6C10.895 6 10 6.895 10 8V9H9V8C9 6.895 9.895 6 11 6H12ZM14 6C15.105 6 16 6.895 16 8V9H15V8C15 6.895 14.105 6 13 6H14ZM12 15C10.895 15 10 15.895 10 17V18H9V17C9 15.895 9.895 15 11 15H12ZM14 15C15.105 15 16 15.895 16 17V18H15V17C15 15.895 14.105 15 13 15H14ZM12 10C10.895 10 10 10.895 10 12V13H9V12C9 10.895 9.895 10 11 10H12ZM14 10C15.105 10 16 10.895 16 12V13H15V12C15 10.895 14.105 10 13 10H14ZM12 14C10.895 14 10 14.895 10 16V17H9V16C9 14.895 9.895 14 11 14H12ZM14 14C15.105 14 16 14.895 16 16V17H15V16C15 14.895 14.105 14 13 14H14ZM12 8C10.895 8 10 8.895 10 10V11H9V10C9 8.895 9.895 8 11 8H12ZM14 8C15.105 8 16 8.895 16 10V11H15V10C15 8.895 14.105 8 13 8H14Z" fill="#007BFF"/>
</svg>
